<svg xmlns="http://www.w3.org/2000/svg"   xmlns:xlink="http://www.w3.org/1999/xlink" width="40px" height="20px" viewBox="0 0 40 20" version="1.1">
  <g id="tjbwnmkzrv-Page-1" stroke="none" stroke-width="1" fill="none" fill-rule="evenodd">
    <g id="tjbwnmkzrv-icon-community" fill="white" fill-rule="nonzero">
      <path d="M8.02282454,0.0370898716 C6.30527817,0.310984308 4.69044223,1.54065621 3.94293866,3.12981455 C3.58915835,3.88873039 3.44079886,4.55634807 3.44079886,5.42368046 C3.44341987,7.03420481 4.1679792,8.55871113 5.41512126,9.57774608 C5.61483595,9.74322397 5.78031384,9.89158345 5.78031384,9.91440799 C5.78031384,9.93723252 5.68330956,9.9828816 5.56918688,10.0228245 C4.35948645,10.4564907 2.82453638,11.6034237 1.86019971,12.7960057 C1.41512126,13.3495007 0.47360913,14.9814551 0.47360913,15.2097004 C0.467895258,15.2703673 0.448376809,15.3289226 0.416547789,15.3808845 C0.313837375,15.5634807 0.0684736091,16.5049929 0.0342368046,16.8644793 L0,17.2182596 L1.43794579,17.2182596 L1.50071327,16.9728959 C1.80313837,15.8259629 2.31098431,14.67903 2.82453638,13.9942939 C3.24108417,13.4350927 4.07417974,12.6134094 4.57631954,12.2653352 C5.11269615,11.8887304 5.96861626,11.4493581 6.52211127,11.2667618 C7.03566334,11.0955777 8.07988588,10.9186876 9.17546362,10.8045649 C10.0827389,10.7189729 10.4593438,10.6219686 11.064194,10.342368 C12.2879568,9.78726731 13.2676883,8.8055074 13.8202568,7.58059914 C13.9175917,7.37778957 13.9996088,7.16797848 14.0656205,6.95292439 C14.2310984,6.27960057 14.2824536,5.94864479 14.2824536,5.4636234 C14.2824536,3.00998573 12.67903,0.875891583 10.3052782,0.179743224 C9.91155492,0.0656205421 9.64336662,0.0313837375 9.06134094,0.0142653352 C8.7150206,0.00152082522 8.36825055,0.00914214505 8.02282454,0.0370898716 Z M9.88873039,1.60057061 C10.6990014,1.86305278 11.275321,2.22253923 11.7717546,2.7703281 C12.1654779,3.20970043 12.3880171,3.60342368 12.5991441,4.23680456 C12.724679,4.62482168 12.7475036,4.79600571 12.7532097,5.37803138 C12.7532097,6.18830243 12.6733238,6.54208274 12.3309558,7.22681883 C11.8792999,8.09913774 11.1056467,8.76124574 10.1740371,9.07275321 C9.489301,9.30670471 8.94151213,9.37517832 8.42225392,9.28958631 C6.84165478,9.03851641 5.75178317,8.19971469 5.19828816,6.81312411 C5.02710414,6.37945792 5.01569187,6.29957204 4.99286733,5.51212553 C4.9700428,4.56490728 5.01569187,4.31954351 5.36947218,3.59486448 C5.62624822,3.06990014 6.20827389,2.42510699 6.71041369,2.11126961 C7.18203849,1.82824478 7.69662558,1.62395178 8.2339515,1.5064194 C8.5021398,1.45221113 9.63195435,1.52068474 9.88873039,1.60057061 Z" id="tjbwnmkzrv-Shape"></path>
      <path d="M30.1398003,0.0713266762 C28.1793777,0.438360747 26.5730968,1.84139794 25.9457917,3.73466476 C25.3124108,5.62339515 25.8373752,7.82025678 27.2524964,9.19543509 C28.3537803,10.2624822 29.2724679,10.67903 30.8587732,10.8273894 C31.9372325,10.9243937 32.9415121,11.0955777 33.4436519,11.2610556 C35.1954351,11.8544936 36.7360913,13.1669044 37.6833096,14.8787447 C37.8430813,15.1640514 38.1968616,16.042796 38.2938659,16.3908702 C38.3281027,16.5164051 38.3908702,16.7446505 38.4365193,16.9044223 L38.5164051,17.189729 L39.235378,17.2068474 C40.0342368,17.2239658 40.0513552,17.2125535 39.9486448,16.8359486 C39.9201141,16.7161198 39.8687589,16.5164051 39.8345221,16.3908702 C39.235378,13.9543509 37.746077,11.9115549 35.6519258,10.6447932 C35.1212553,10.3252496 34.7788873,10.1540656 34.4136947,10.0228245 C34.2938659,9.9828816 34.1968616,9.92011412 34.1968616,9.88587732 C34.1968616,9.85164051 34.3109843,9.74322397 34.4536377,9.64051355 C35.7261056,8.67617689 36.5363766,7.04422254 36.5363766,5.42368046 C36.5363766,4.06562054 35.9600571,2.62196862 35.0356633,1.69186876 C34.339515,0.984308131 33.4607703,0.442225392 32.5706134,0.185449358 C31.9201141,5.07406617e-17 30.807418,-0.0570613409 30.1398003,0.0713266762 Z M32.1426534,1.60057061 C33.2268188,1.94864479 34.0256776,2.57631954 34.5164051,3.44365193 C34.8701854,4.07703281 35.0071327,4.60199715 35.0128388,5.37803138 C35.0128388,5.85734665 34.9900143,6.14835949 34.9272468,6.34807418 C34.3908702,8.05420827 33.278174,9.02425107 31.532097,9.29243937 C31.0128388,9.37232525 30.5677603,9.32097004 29.8601997,9.10413695 C28.2510699,8.60770328 27.1726106,7.07845934 27.1782942,5.30385164 C27.1840228,3.90584879 27.9771755,2.63338088 29.2895863,1.91440799 C29.5520685,1.77175464 30.2082739,1.55492154 30.5164051,1.50356633 C30.8245364,1.45221113 31.8858773,1.52068474 32.1426534,1.60057061 L32.1426534,1.60057061 Z" id="tjbwnmkzrv-Shape"></path>
      <path d="M18.6476462,2.57631954 C16.9871612,3.03851641 15.6804565,4.14550642 15.0128388,5.66333809 C14.6761769,6.42225392 14.596291,6.83880171 14.6019971,7.83166904 C14.6077033,8.85877318 14.6990014,9.32097004 15.0470756,10.0627675 C15.4407989,10.8901569 16.1198288,11.746077 16.7189729,12.1569187 C16.9072753,12.2824536 16.9700428,12.425107 16.8330956,12.425107 C16.639087,12.425107 15.3323823,13.1440799 14.6248217,13.6405136 C14.1854494,13.9486448 13.0670471,15.1126961 12.6676177,15.6776034 C12.0285307,16.5848787 11.4693295,17.8059914 11.2582026,18.7589158 C11.2182596,18.9300999 11.1669044,19.146933 11.1383738,19.2382311 C11.0699001,19.4607703 11.0699001,19.4778887 11.1783167,19.5805991 C11.2467903,19.6490728 11.3951498,19.6718973 11.8345221,19.6718973 C12.1483595,19.6718973 12.4564907,19.6433666 12.5135521,19.6148359 C12.5706134,19.5863053 12.639087,19.4664765 12.6562054,19.3409415 C12.7931526,18.5420827 13.2553495,17.4750357 13.8544936,16.5677603 C14.3737518,15.7917261 15.4522111,14.7931526 16.3138374,14.3024251 C18.0713267,13.2981455 20.2681883,13.0584879 22.1797432,13.6633381 C23.6405136,14.125535 25.1184023,15.1868759 26.0028531,16.4136947 C26.4022825,16.9728959 26.8758916,17.8972896 27.0584879,18.4736091 C27.1326676,18.7075606 27.2125535,18.9586305 27.2410842,19.0328103 C27.2718673,19.1190403 27.2891887,19.2094964 27.2924394,19.3009986 C27.2999597,19.3971322 27.3402445,19.487773 27.4065621,19.5577746 C27.5035663,19.6547789 27.5948645,19.6718973 28.1141227,19.6718973 C28.5763195,19.6718973 28.7303852,19.6490728 28.7988588,19.5863053 C28.8419675,19.5446748 28.8648713,19.4863744 28.8616262,19.4265335 C28.850214,19.3865906 28.7703281,19.0784593 28.6904422,18.7417974 C28.2914799,17.1387986 27.4628919,15.6749597 26.2938659,14.5078459 C25.6833096,13.8915835 25.2952924,13.5777461 24.6105563,13.1554922 C24.1369472,12.8644793 23.2582026,12.425107 23.1440799,12.425107 C23.0014265,12.425107 23.0756063,12.2824536 23.3038516,12.1112696 C23.828816,11.7232525 24.5249643,10.8787447 24.850214,10.2282454 C25.2382311,9.45791726 25.3808845,8.80741797 25.3751783,7.83166904 C25.3694722,6.69044223 25.1184023,5.80028531 24.5363766,4.90442225 C23.9029957,3.92296719 23.0242511,3.22681883 21.78602,2.7189729 C21.0328103,2.40513552 19.5035663,2.34236805 18.6476462,2.57631954 Z M20.8045649,4.0085592 C21.363766,4.13980029 21.6205421,4.2425107 22.0770328,4.5278174 C23.8516405,5.63480742 24.4279601,7.99714693 23.3723252,9.81169757 C23.0927247,10.2910128 22.3338088,11.0385164 21.8887304,11.2724679 C21.2439372,11.6148359 20.724679,11.7403709 20.0057061,11.7403709 C18.8758916,11.7403709 18.042796,11.4094151 17.2553495,10.639087 C15.3780314,8.80741797 15.7603424,5.7660485 18.0370899,4.43651926 C18.8131241,3.98002853 19.9372325,3.80884451 20.8045649,4.0085592 Z" id="tjbwnmkzrv-Shape"></path>
    </g>
  </g>
</svg>