<svg xmlns="http://www.w3.org/2000/svg" viewBox="0 0 39 41" width="40px"
          height="40px" fill="white" >
  <path d="M0,20c0,11,8.73,20,19.47,20a18.56,18.56,0,0,0,8.61-2.12l2.54,3a.31.31,0,0,0,.24.12.29.29,0,0,0,.23-.12l5.49-6.49A4.82,4.82,0,0,0,37.94,31a5,5,0,0,0-.83-2.73A22.4,22.4,0,0,0,39,20C38.94,9,30.21,0,19.47,0S0,9,0,20Zm28-9.82a28.43,28.43,0,0,0-5.55-8.73,18.43,18.43,0,0,1,12.63,8.73ZM30.8,27.05A4,4,0,0,0,29,26.38a23.46,23.46,0,0,0,.88-5.7h7.91a23.17,23.17,0,0,1-1.53,6.73,4.55,4.55,0,0,0-5.43-.36ZM9.09,20.62a23.48,23.48,0,0,0,1.47,7.58H3a19,19,0,0,1-1.77-7.58Zm1.35-9.22A26,26,0,0,0,9,19.47H1.18a19.39,19.39,0,0,1,2-8.07ZM18.88,1.21v8.92H12.27a26.11,26.11,0,0,1,6.14-8.86A1.44,1.44,0,0,1,18.88,1.21Zm7.79,8.92H20.06V1.21a1.41,1.41,0,0,1,.47.06h0A25.35,25.35,0,0,1,26.67,10.13Zm2,9.34H20.06V11.4h7.08A25.08,25.08,0,0,1,28.67,19.47Zm-9.79-.06H10.27a24.34,24.34,0,0,1,1.53-8.07h7.08v8.07Zm0,1.21V28.2h-7a20.42,20.42,0,0,1-1.59-7.58Zm0,17.59a28.85,28.85,0,0,1-6.55-8.73h6.55v8.73ZM24,29.42a5.49,5.49,0,0,0-.29,1.63,4.37,4.37,0,0,0,.59,2.31,22,22,0,0,1-4.25,4.91V29.42Zm.65-1.22h-4.6V20.62h8.61a20.6,20.6,0,0,1-.94,5.7,4.53,4.53,0,0,0-2.65,1.4A3,3,0,0,0,24.66,28.2Zm3.78-16.86H35.7a19.58,19.58,0,0,1,2.06,8.07H29.85A27.28,27.28,0,0,0,28.44,11.34ZM10.92,10.13H3.84A18.63,18.63,0,0,1,16.46,1.46,28.17,28.17,0,0,0,10.92,10.13ZM11,29.42a28.3,28.3,0,0,0,6.67,9.34A18.33,18.33,0,0,1,3.6,29.42Zm14,5,2.18,2.61a18.59,18.59,0,0,1-5.84,1.7A24.31,24.31,0,0,0,25,34.45Zm5.78,5-5-5.82a3.83,3.83,0,0,1-1.06-2.61,3.64,3.64,0,0,1,1.06-2.6,3.53,3.53,0,0,1,2.54-1.1,3.37,3.37,0,0,1,2.12.73l.12.12a.38.38,0,0,0,.36,0l.11-.12a3.52,3.52,0,0,1,2.13-.73,3.46,3.46,0,0,1,2.53,1.1,3.72,3.72,0,0,1,0,5.21Z"></path>
</svg>